# xmcd
#
# Track frame offsets: 
#        150
#        19297
#        42508
#        63689
#        89268
#        110398
#        139499
#        161798
#        190404
#        212431
#        236648
#
# Disc length: 3417 seconds
#
# Revision: 2
# Processed by: cddbd v1.5.2PL0 Copyright (c) Steve Scherf et al.
# Submitted via: ExactAudioCopy v0.99pb4
#
DISCID=a30d570b
DTITLE=Kora Jazz Trio - Part 3
DYEAR=2008
DGENRE=Jazz
TTITLE0=Xam-Xam
TTITLE1=Djelia
TTITLE2=Chan-Chan
TTITLE3=Bitele
TTITLE4=La Musse
TTITLE5=Garde à vous
TTITLE6=Konon
TTITLE7=Dali
TTITLE8=Saxy
TTITLE9=Diaman
TTITLE10=Mamy
EXTD=YEAR: 2008
EXTT0=
EXTT1=
EXTT2=
EXTT3=
EXTT4=
EXTT5=
EXTT6=
EXTT7=
EXTT8=
EXTT9=
EXTT10=
PLAYORDER=
